{"title":"1920 Evil Returns 2012 DVDRip 400MB x264 AAC - ViZNU [P2PDL]","uid":7971504,"size":430556408,"categoryP":"video","categoryS":"movies","magnet":"?xt=urn:btih:db5c2f2f21cfa2306db4c8a4e2fba9179ce1cbf2&amp;dn=1920+Evil+Returns+2012+DVDRip+400MB+x264+AAC+-+ViZNU+%5BP2PDL%5D&amp;tr=udp%3A%2F%2Ftracker.openbittorrent.com%3A80&amp;tr=udp%3A%2F%2Fopen.demonii.com%3A1337&amp;tr=udp%3A%2F%2Ftracker.coppersurfer.tk%3A6969&amp;tr=udp%3A%2F%2Fexodus.desync.com%3A6969","seeders":0,"leechers":1,"uploader":"ValidusVyto","files":-1,"time":1356862709,"description":"_________________________  Visit us at _________________________\n   &lt;a href=&quot;\nhttp://p2pdl.com&quot; rel=&quot;nofollow&quot; target=&quot;_NEW&quot;&gt;\nhttp://p2pdl.com&lt;/a&gt;  ____________________________ &lt;a href=&quot; http://p2pdl.com&quot; rel=&quot;nofollow&quot; target=&quot;_NEW&quot;&gt; http://p2pdl.com&lt;/a&gt;\n\n\n1920 Evil Returns 2012 DVDRip x264 AAC - ViZNU [P2PDL]\n &lt;a href=&quot;\nhttp://www.imdb.com/title/tt2222550/&quot; rel=&quot;nofollow&quot; target=&quot;_NEW&quot;&gt;\nhttp://www.imdb.com/title/tt2222550/&lt;/a&gt;\nHorror\nDirector: Bhushan Patel\nStars: Tia Bajpai, Vidya Malvade and Aftab Shivdasani.\nThis story revolves around a famous poet who meets a woman who is in trouble. The woman soon gets\npossessed by devil and goes out of control. Now the question remains that what is the relation that\npoet shares with her which compelled him to go to any extent to save her, why she was possessed by\ndevil and who is the devil.\n\nGeneral\nMovie name                     : 1920 Evil Returns 2012\nFormat                         : MPEG-4\nFormat profile                 : Base Media\nCodec ID                       : isom\nFile size                      : 403 MiB\nDuration                       : 1h 59mn\nOverall bit rate mode          : Variable\nOverall bit rate               : 472 Kbps\nEncoded date                   : UTC 2012-12-30 07:45:22\nTagged date                    : UTC 2012-12-30 07:45:22\n\nVideo\nID                             : 1\nFormat                         : AVC\nFormat/Info                    : Advanced Video Codec\nDuration                       : 1h 59mn\nBit rate                       : 436 Kbps\nWidth                          : 608 pixels\nHeight                         : 256 pixels\nStream size                    : 372 MiB (92%)\nWriting library                : x264 core 129 r2230\nSource                         : DVD9 NTSC\n\nAudio\nID                             : 2\nFormat                         : AAC\nFormat/Info                    : Advanced Audio Codec\nFormat profile                 : LC\nCodec ID                       : 40\nDuration                       : 1h 59mn\nBit rate mode                  : Variable\nBit rate                       : 32.0 Kbps\nMaximum bit rate               : 37.7 Kbps\nChannel(s)                     : 2 channels\nChannel positions              : Front: L R\nSampling rate                  : 44.1 KHz\nStream size                    : 27.3 MiB (7%)\nLanguage                       : Hindi\n\nSubtitle                       : N/a\n\n\nScreens:\n &lt;a href=&quot;\nhttp://www.shotpix.com/images/86747276657722218031.png&quot; rel=&quot;nofollow&quot; target=&quot;_NEW&quot;&gt;\nhttp://www.shotpix.com/images/86747276657722218031.png&lt;/a&gt; &lt;a href=&quot;\nhttp://www.shotpix.com/images/28302550578619613949.png&quot; rel=&quot;nofollow&quot; target=&quot;_NEW&quot;&gt;\nhttp://www.shotpix.com/images/28302550578619613949.png&lt;/a&gt; &lt;a href=&quot;\nhttp://www.shotpix.com/images/10362598582190903346.png&quot; rel=&quot;nofollow&quot; target=&quot;_NEW&quot;&gt;\nhttp://www.shotpix.com/images/10362598582190903346.png&lt;/a&gt; &lt;a href=&quot;\nhttp://www.shotpix.com/images/62755987824531145852.png&quot; rel=&quot;nofollow&quot; target=&quot;_NEW&quot;&gt;\nhttp://www.shotpix.com/images/62755987824531145852.png&lt;/a&gt; &lt;a href=&quot;\nhttp://www.shotpix.com/images/97484364190462377310.png&quot; rel=&quot;nofollow&quot; target=&quot;_NEW&quot;&gt;\nhttp://www.shotpix.com/images/97484364190462377310.png&lt;/a&gt; &lt;a href=&quot;\nhttp://www.shotpix.com/images/82917291767974701015.png&quot; rel=&quot;nofollow&quot; target=&quot;_NEW&quot;&gt;\nhttp://www.shotpix.com/images/82917291767974701015.png&lt;/a&gt;\n\n\n----------------------------------------------------------------------------------------------------\n\n\nRecommend to you to use latest version of VLC player. Install K-Lite Codec Pack or shark007 codecs\nin case of any kind of problem in playback (For non-VLC Media Player users). Alternatively, install\nCore AVC codecs, the fastest decoder that there is coupled with Community Center Codec Pack and play\non Windows Media Player Classic. Check sample to be sure.\nEnjoy!\n\nGreets to: Vitamin_X, a2zRG, srkfan, staff members at ExtraTorrent, TPB,KAT, 1337x, PublicHD, Ahashare,\nBTScene, SilverTorrent, TorrentMafia, P2PDL, and all others.\n\nEncoder Notes: Looking For Early Access To Anything You Can Provide DVDScr, R5, DVDR, BluRay, Direct\nAudio, Early Music Releases, Seedboxes, Dedicated Servers anything u can provide, Advance / Promo CDs/\nDVDs. If You Got anything to offer contact me at &quot;&lt;a class=&quot;__cf_email__&quot; href=&quot;/cdn-cgi/l/email-protection&quot; data-cfemail=&quot;0d7d7f6a4d65787e65236e6260&quot;&gt;[email&amp;#160;protected]&lt;/a&gt;&lt;script cf-hash='f9e31' type=&quot;text/javascript&quot;&gt;\n/* &lt;![CDATA[ */!function(){try{var t=&quot;currentScript&quot;in document?document.currentScript:function(){for(var t=document.getElementsByTagName(&quot;script&quot;),e=t.length;e--;)if(t[e].getAttribute(&quot;cf-hash&quot;))return t[e]}();if(t&amp;&amp;t.previousSibling){var e,r,n,i,c=t.previousSibling,a=c.getAttribute(&quot;data-cfemail&quot;);if(a){for(e=&quot;&quot;,r=parseInt(a.substr(0,2),16),n=2;a.length-n;n+=2)i=parseInt(a.substr(n,2),16)^r,e+=String.fromCharCode(i);e=document.createTextNode(e),c.parentNode.replaceChild(e,c)}}}catch(u){}}();/* ]]&gt; */&lt;/script&gt;&quot;.\n\nFacebook Fan Page: www . facebook . com / p2pdl","torrent":{"xt":"urn:btih:db5c2f2f21cfa2306db4c8a4e2fba9179ce1cbf2","amp;dn":"1920+Evil+Returns+2012+DVDRip+400MB+x264+AAC+-+ViZNU+%5BP2PDL%5D","amp;tr":["udp%3A%2F%2Ftracker.openbittorrent.com%3A80","udp%3A%2F%2Fopen.demonii.com%3A1337","udp%3A%2F%2Ftracker.coppersurfer.tk%3A6969","udp%3A%2F%2Fexodus.desync.com%3A6969"],"infoHash":"db5c2f2f21cfa2306db4c8a4e2fba9179ce1cbf2","infoHashBuffer":{"type":"Buffer","data":[219,92,47,47,33,207,162,48,109,180,200,164,226,251,169,23,156,225,203,242]},"announce":[],"urlList":[]}}